<svg xmlns="http://www.w3.org/2000/svg" xmlns:xlink="http://www.w3.org/1999/xlink" zoomAndPan="magnify" preserveAspectRatio="xMidYMid meet" version="1.0" viewBox="93.86 65.66 187.5 230.28"><defs><g/><clipPath id="id1"><path d="M 93.855469 65.65625 L 281.355469 65.65625 L 281.355469 253.15625 L 93.855469 253.15625 Z M 93.855469 65.65625 " clip-rule="nonzero"/></clipPath></defs><g fill="#ac7849" fill-opacity="1"><g transform="translate(107.997888, 281.879879)"><g><path d="M 10 3.015625 L 7.265625 -15.71875 L 5.484375 -16.265625 L 6.5625 -19.828125 L 16.78125 -16.75 L 15.703125 -13.1875 L 13.359375 -13.890625 L 14.296875 -2.625 L 21.171875 -11.53125 L 18.875 -12.21875 L 19.953125 -15.78125 L 28.921875 -13.078125 L 27.84375 -9.515625 L 26.046875 -10.0625 L 14.078125 4.25 Z M 10 3.015625 "/></g></g></g><g fill="#ac7849" fill-opacity="1"><g transform="translate(137.444463, 290.156819)"><g><path d="M 1.78125 0.34375 L 2.484375 -3.28125 L 4.484375 -2.890625 L 7.078125 -16.109375 L 5.078125 -16.5 L 5.78125 -20.140625 L 15.84375 -18.171875 L 15.140625 -14.53125 L 13.078125 -14.9375 L 10.484375 -1.71875 L 12.546875 -1.3125 L 11.84375 2.3125 Z M 1.78125 0.34375 "/></g></g></g><g fill="#ac7849" fill-opacity="1"><g transform="translate(157.097533, 293.923684)"><g><path d="M 6.171875 0.59375 L 6.53125 -3.078125 L 8.875 -2.859375 L 10.171875 -16.375 L 6.515625 -16.71875 L 6.109375 -12.609375 L 2.1875 -12.984375 L 2.9375 -20.6875 L 24.140625 -18.65625 L 23.390625 -10.953125 L 19.484375 -11.328125 L 19.890625 -15.4375 L 16.25 -15.78125 L 14.953125 -2.265625 L 17.28125 -2.046875 L 16.921875 1.625 Z M 6.171875 0.59375 "/></g></g></g><g fill="#ac7849" fill-opacity="1"><g transform="translate(186.312079, 296.200492)"><g><path d="M 1.828125 -6.890625 L 1.828125 -10.1875 L 11.96875 -10.203125 L 11.96875 -6.90625 Z M 1.828125 -6.890625 "/></g></g></g><g fill="#ac7849" fill-opacity="1"><g transform="translate(206.296448, 296.111335)"><g><path d="M 1.328125 -3.84375 L 3.375 -4.046875 L 2.03125 -17.453125 L -0.015625 -17.25 L -0.390625 -20.9375 L 11.609375 -22.140625 C 14.171875 -22.390625 16.128906 -22.128906 17.484375 -21.359375 C 18.847656 -20.585938 19.609375 -19.414062 19.765625 -17.84375 C 19.890625 -16.625 19.664062 -15.628906 19.09375 -14.859375 C 18.519531 -14.097656 17.5625 -13.492188 16.21875 -13.046875 C 19.65625 -12.847656 21.523438 -11.210938 21.828125 -8.140625 C 22.023438 -6.222656 21.460938 -4.6875 20.140625 -3.53125 C 18.828125 -2.382812 16.75 -1.671875 13.90625 -1.390625 L 1.6875 -0.171875 Z M 11.125 -13.921875 C 13 -14.109375 13.859375 -14.953125 13.703125 -16.453125 C 13.628906 -17.179688 13.335938 -17.695312 12.828125 -18 C 12.316406 -18.300781 11.554688 -18.398438 10.546875 -18.296875 L 8.140625 -18.0625 L 8.578125 -13.671875 Z M 12.3125 -4.96875 C 14.613281 -5.195312 15.671875 -6.242188 15.484375 -8.109375 C 15.304688 -9.953125 14.050781 -10.757812 11.71875 -10.53125 L 8.921875 -10.25 L 9.46875 -4.6875 Z M 12.3125 -4.96875 "/></g></g></g><g fill="#ac7849" fill-opacity="1"><g transform="translate(235.943281, 292.598924)"><g><path d="M 1.78125 -0.359375 L 1.0625 -3.96875 L 3.0625 -4.375 L 0.40625 -17.59375 L -1.59375 -17.1875 L -2.328125 -20.828125 L 7.71875 -22.84375 L 8.453125 -19.203125 L 6.40625 -18.796875 L 9.0625 -5.578125 L 11.109375 -5.984375 L 11.828125 -2.375 Z M 1.78125 -0.359375 "/></g></g></g><g fill="#ac7849" fill-opacity="1"><g transform="translate(255.54814, 288.588491)"><g><path d="M 5.9375 -1.8125 L 4.859375 -5.34375 L 7.109375 -6.015625 L 3.15625 -19 L -0.375 -17.9375 L 0.828125 -14 L -2.9375 -12.84375 L -5.1875 -20.234375 L 15.203125 -26.4375 L 17.453125 -19.046875 L 13.6875 -17.90625 L 12.484375 -21.84375 L 8.984375 -20.78125 L 12.9375 -7.796875 L 15.1875 -8.484375 L 16.265625 -4.953125 Z M 5.9375 -1.8125 "/></g></g></g><path fill="#626ca2" d="M 153.230469 128.15625 L 146.980469 128.15625 L 146.980469 100.03125 L 140.730469 100.03125 L 140.730469 128.15625 L 134.480469 128.15625 L 134.480469 100.03125 L 128.230469 100.03125 L 128.230469 137.53125 C 128.230469 141.523438 130.746094 144.914062 134.265625 146.261719 L 129.28125 206.066406 C 128.941406 210.128906 130.328125 214.179688 133.09375 217.179688 C 135.851562 220.183594 139.777344 221.90625 143.859375 221.90625 C 147.9375 221.90625 151.859375 220.183594 154.617188 217.183594 C 157.378906 214.179688 158.765625 210.132812 158.429688 206.066406 L 153.445312 146.261719 C 156.964844 144.914062 159.480469 141.523438 159.480469 137.53125 L 159.480469 100.03125 L 153.230469 100.03125 Z M 150.105469 140.65625 L 137.605469 140.65625 C 135.878906 140.65625 134.480469 139.257812 134.480469 137.53125 L 134.480469 134.40625 L 153.230469 134.40625 L 153.230469 137.53125 C 153.230469 139.257812 151.828125 140.65625 150.105469 140.65625 Z M 150.019531 212.949219 C 146.8125 216.441406 140.90625 216.445312 137.691406 212.953125 C 136.085938 211.210938 135.3125 208.949219 135.507812 206.585938 L 140.480469 146.90625 L 147.230469 146.90625 L 152.203125 206.585938 C 152.398438 208.949219 151.625 211.207031 150.019531 212.949219 Z M 150.019531 212.949219 " fill-opacity="1" fill-rule="nonzero"/><path fill="#626ca2" d="M 195.25 100.359375 C 194.191406 99.832031 192.921875 99.945312 191.976562 100.65625 L 186.722656 104.601562 C 181.574219 108.460938 177.34375 113.253906 174.148438 118.84375 L 171.90625 122.769531 C 167.867188 129.839844 165.730469 137.882812 165.730469 146.023438 L 165.730469 154.226562 C 165.730469 158.402344 167.359375 162.328125 170.308594 165.277344 L 174.9375 169.910156 L 170.320312 206.871094 C 169.84375 210.675781 171.027344 214.503906 173.5625 217.378906 C 176.097656 220.257812 179.753906 221.90625 183.59375 221.90625 L 183.605469 221.90625 C 190.980469 221.90625 196.980469 215.90625 196.980469 208.53125 L 196.980469 103.15625 C 196.980469 101.972656 196.3125 100.890625 195.25 100.359375 Z M 171.980469 154.226562 L 171.980469 146.023438 C 171.980469 138.96875 173.832031 132 177.332031 125.867188 L 179.578125 121.945312 C 182.34375 117.097656 186.015625 112.945312 190.476562 109.601562 L 190.730469 109.40625 L 190.730469 165.65625 L 179.523438 165.65625 L 174.726562 160.859375 C 172.953125 159.085938 171.980469 156.734375 171.980469 154.226562 Z M 190.730469 208.53125 C 190.730469 212.460938 187.535156 215.65625 183.605469 215.65625 L 183.59375 215.65625 C 181.546875 215.65625 179.601562 214.777344 178.25 213.246094 C 176.894531 211.714844 176.265625 209.675781 176.519531 207.648438 L 180.988281 171.90625 L 190.730469 171.90625 Z M 190.730469 208.53125 " fill-opacity="1" fill-rule="nonzero"/><g clip-path="url(#id1)"><path fill="#626ca2" d="M 187.605469 65.65625 C 135.910156 65.65625 93.855469 107.710938 93.855469 159.40625 C 93.855469 211.101562 135.910156 253.15625 187.605469 253.15625 C 239.296875 253.15625 281.355469 211.101562 281.355469 159.40625 C 281.355469 107.710938 239.296875 65.65625 187.605469 65.65625 Z M 187.605469 246.90625 C 139.359375 246.90625 100.105469 207.652344 100.105469 159.40625 C 100.105469 111.160156 139.359375 71.90625 187.605469 71.90625 C 235.851562 71.90625 275.105469 111.160156 275.105469 159.40625 C 275.105469 207.652344 235.851562 246.90625 187.605469 246.90625 Z M 187.605469 246.90625 " fill-opacity="1" fill-rule="nonzero"/></g><path fill="#626ca2" d="M 225.105469 100.03125 C 211.75 100.03125 203.230469 120.390625 203.230469 134.40625 C 203.230469 144.492188 207.445312 151.4375 215.058594 154.5 L 210.574219 206.054688 C 210.21875 210.117188 211.59375 214.167969 214.351562 217.175781 C 217.109375 220.179688 221.027344 221.90625 225.105469 221.90625 C 229.183594 221.90625 233.101562 220.179688 235.855469 217.175781 C 238.609375 214.167969 239.984375 210.117188 239.632812 206.054688 L 235.152344 154.5 C 242.765625 151.4375 246.980469 144.492188 246.980469 134.40625 C 246.980469 120.390625 238.457031 100.03125 225.105469 100.03125 Z M 229.011719 156.042969 L 233.40625 206.601562 C 233.609375 208.957031 232.84375 211.210938 231.25 212.953125 C 228.050781 216.4375 222.160156 216.4375 218.960938 212.953125 C 217.359375 211.210938 216.59375 208.957031 216.800781 206.601562 L 221.199219 156.042969 C 221.277344 156.054688 221.359375 156.050781 221.441406 156.058594 C 222.617188 156.191406 223.828125 156.28125 225.105469 156.28125 C 226.382812 156.28125 227.59375 156.191406 228.765625 156.058594 C 228.847656 156.050781 228.933594 156.054688 229.011719 156.042969 Z M 230.015625 149.492188 C 229.453125 149.609375 228.902344 149.742188 228.308594 149.816406 C 227.527344 149.914062 226.699219 149.960938 225.84375 149.980469 C 225.34375 149.996094 224.859375 149.996094 224.359375 149.980469 C 223.507812 149.960938 222.675781 149.914062 221.898438 149.816406 C 221.304688 149.742188 220.75 149.609375 220.1875 149.492188 C 213.117188 147.976562 209.480469 142.960938 209.480469 134.40625 C 209.480469 122.125 217.058594 106.28125 225.105469 106.28125 C 233.152344 106.28125 240.730469 122.125 240.730469 134.40625 C 240.730469 142.960938 237.09375 147.976562 230.015625 149.492188 Z M 230.015625 149.492188 " fill-opacity="1" fill-rule="nonzero"/></svg>